<?xml version="1.0" encoding="UTF-8"?>
<svg id="Layer_2" data-name="Layer 2" xmlns="http://www.w3.org/2000/svg" viewBox="0 0 76.24 63.2">
  <defs>
    <style>
      .cls-1 {
        fill: #0054a2;
        fill-rule: evenodd;
        stroke-width: 0px;
      }
    </style>
  </defs>
  <g id="Layer_1-2" data-name="Layer 1">
    <path class="cls-1" d="M31.11,41.53h0C55.91,32.35,80.84,5.88,50.14.35c20.91-1.9,27,4.12,24,12.21l-10,7.2,3.6,2.08c-7.92,8.11-21.63,16.16-36.63,19.69Z"/>
    <path class="cls-1" d="M59,8.35C39.19-5.13,13.18,14.56,21.38,37.35,2.05,12.82,39-13.26,59,8.35Z"/>
    <path class="cls-1" d="M29.32,6.81c-2.4,1.87-2.55-1.64-4.49.24C.24,30.95,13,52.55,36.37,46.47c-31.72,17.95-57-7.45-12-40.23,2.19-1.57,2.46,2.17,4.95.57Z"/>
    <path class="cls-1" d="M28.33,7.6c6,5.48,18.47,9,26.43,8.15-10.59,6.02-23.36-1.3-27.76-6.95.47-.45.91-.82,1.33-1.2Z"/>
    <path class="cls-1" d="M49.58,7.06s-7-.19-13.54,8.9c-6.54,9.09-4.44,22-4.44,22,0,0,3.67-23.55,17.98-30.9Z"/>
    <path class="cls-1" d="M19.24,19.2c6,5.48,18.47,9,26.43,8.16-10.59,6-23.36-1.3-27.73-7,.44-.37.88-.77,1.3-1.16Z"/>
    <path class="cls-1" d="M75.22,11.65v.16h0v-.16ZM75.73,14.35c5.07,32.07-29.23,47.12-33,48.85v-13.57c10.32-5.28,22.82-14.57,28.87-25.55l3.1,1.79,1.03-11.52Z"/>
  </g>
</svg>