<?xml version="1.0" encoding="utf-8"?>
<!-- Generator: Adobe Illustrator 28.1.0, SVG Export Plug-In . SVG Version: 6.00 Build 0)  -->
<svg version="1.1" id="Layer_1" xmlns="http://www.w3.org/2000/svg" xmlns:xlink="http://www.w3.org/1999/xlink" x="0px" y="0px"
	 viewBox="0 0 403.4 63.8" style="enable-background:new 0 0 403.4 63.8;" xml:space="preserve">
<style type="text/css">
	.st0{fill:#FFFFFF;}
	.st1{fill-rule:evenodd;clip-rule:evenodd;fill:#FFFFFF;}
</style>
<path class="st0" d="M94.6,58.1h15.9l0.3-1.8H96.7l2.5-14.2h-1.8L94.6,58.1L94.6,58.1z M129.7,42.1c-1.5,0-2.8,1.1-3.1,2.7
	l-1.9,10.6c-0.3,1.2,0.4,2.3,1.6,2.6c0.2,0,0.4,0.1,0.6,0.1h10.6c1.5,0,2.8-1.2,3.1-2.7l1.9-10.6c0.3-1.2-0.4-2.3-1.6-2.6
	c-0.2,0-0.4-0.1-0.6-0.1H129.7z M127.2,56.3c-0.4,0-0.7-0.3-0.7-0.7c0-0.1,0-0.1,0-0.2l1.9-10.6c0.1-0.5,0.5-0.8,1-0.9H140
	c0.4,0,0.7,0.3,0.7,0.7c0,0.1,0,0.1,0,0.2l-1.9,10.6c-0.1,0.5-0.5,0.8-1,0.9H127.2z M173.4,44.8c0.3-1.2-0.4-2.3-1.6-2.6
	c-0.2,0-0.4-0.1-0.6-0.1h-10.6c-1.5,0-2.8,1.2-3.1,2.7l-1.9,10.7c-0.3,1.2,0.4,2.3,1.6,2.6c0.2,0,0.4,0.1,0.6,0.1h10.6
	c1.5-0.1,2.8-1.2,3.1-2.7l1-5.8h-5.7l-0.3,1.8h3.9l-0.7,3.9c-0.1,0.5-0.5,0.8-1,0.9h-10.6c-0.4,0-0.7-0.3-0.7-0.7c0-0.1,0-0.1,0-0.2
	l1.9-10.6c0.1-0.5,0.5-0.8,1-0.9h10.6c0.4,0,0.7,0.3,0.7,0.7c0,0.1,0,0.1,0,0.2l-0.1,0.6h1.8L173.4,44.8L173.4,44.8z M187.1,58.1
	h1.8l2.8-16h-1.8L187.1,58.1z M221.5,44.8c0.3-1.2-0.4-2.3-1.6-2.6c-0.2,0-0.4-0.1-0.6-0.1h-10.6c-1.5,0-2.8,1.1-3.1,2.7l-0.6,3.6
	c-0.3,1.2,0.5,2.3,1.6,2.6c0.2,0,0.4,0.1,0.6,0.1h10.6c0.4,0,0.7,0.3,0.7,0.7c0,0.1,0,0.1,0,0.2l-0.6,3.6c-0.1,0.5-0.5,0.8-1,0.9
	h-10.7c-0.4,0-0.7-0.3-0.7-0.7c0-0.1,0-0.1,0-0.2l0.1-0.6h-1.8l-0.1,0.6c-0.3,1.2,0.4,2.3,1.6,2.6c0.2,0,0.4,0.1,0.6,0.1h10.6
	c1.5,0,2.8-1.2,3.1-2.7l0.6-3.6c0.3-1.2-0.4-2.3-1.6-2.6c-0.2,0-0.4-0.1-0.6-0.1h-10.6c-0.4,0-0.7-0.3-0.7-0.7c0-0.1,0-0.1,0-0.2
	l0.6-3.6c0.1-0.5,0.5-0.8,1-0.9H219c0.4,0,0.7,0.3,0.7,0.7c0,0.1,0,0.1,0,0.2l-0.1,0.6h1.8L221.5,44.8L221.5,44.8z M236.1,42.1
	l-0.3,1.9h7.1l-2.5,14.2h1.8l2.5-14.2h7.1l0.3-1.8L236.1,42.1z M263.4,58.1h1.8l2.8-16h-1.8L263.4,58.1z M299.1,44l0.3-1.8h-13.2
	c-1.5,0-2.8,1.2-3.1,2.7l-1.9,10.6c-0.3,1.2,0.4,2.3,1.6,2.6c0.2,0,0.4,0.1,0.6,0.1h13.2l0.3-1.8h-13.2c-0.4,0-0.7-0.3-0.7-0.7
	c0-0.1,0-0.1,0-0.2l1.9-10.6c0.1-0.5,0.5-0.8,1-0.9H299.1z M329.6,44.9c0.3-1.2-0.4-2.3-1.6-2.6c-0.2,0-0.4-0.1-0.6-0.1h-10.6
	c-1.5,0-2.8,1.2-3.1,2.7l-0.6,3.5c-0.3,1.2,0.4,2.3,1.6,2.6c0.2,0,0.4,0.1,0.6,0.1h10.6c0.4,0,0.7,0.3,0.7,0.7c0,0.1,0,0.1,0,0.2
	l-0.6,3.6c-0.1,0.5-0.5,0.8-1,0.9h-10.6c-0.4,0-0.7-0.3-0.7-0.7c0-0.1,0-0.1,0-0.2l0.1-0.6h-1.8l-0.1,0.6c-0.3,1.2,0.4,2.3,1.6,2.6
	c0.2,0,0.4,0.1,0.6,0.1h10.6c1.5-0.1,2.8-1.2,3.1-2.7l0.6-3.6c0.3-1.2-0.5-2.3-1.6-2.6c-0.2,0-0.4-0.1-0.6-0.1h-10.6
	c-0.4,0-0.7-0.3-0.7-0.7c0-0.1,0-0.1,0-0.2l0.6-3.6c0.1-0.5,0.5-0.8,1-0.9h10.6c0.4,0,0.7,0.3,0.7,0.7c0,0.1,0,0.1,0,0.2l-0.1,0.6
	h1.8L329.6,44.9L329.6,44.9z M348.4,42.2c-1.5,0-2.8,1.1-3.1,2.7l-2.4,13.3h1.8l1-5.8h12.4l-1,5.8h1.8l2.3-13.3
	c0.3-1.1-0.4-2.3-1.5-2.6c-0.2-0.1-0.4-0.1-0.7-0.1L348.4,42.2z M346.1,50.5l1-5.7c0.1-0.5,0.5-0.8,1-0.9h10.6
	c0.4,0,0.7,0.3,0.7,0.7c0,0.1,0,0.1,0,0.2l-1,5.7H346.1z M361.9,55.8l-0.4,2.3l13.6-13.7l0.4-2.3L361.9,55.8L361.9,55.8z
	 M393.6,44.9l-0.1,0.6h-1.8l0.1-0.6c0.1-0.4-0.2-0.8-0.6-0.9c-0.1,0-0.1,0-0.2,0h-10.6c-0.5,0-0.9,0.4-1,0.9l-0.6,3.6
	c-0.1,0.4,0.2,0.7,0.5,0.8c0.1,0,0.1,0,0.2,0h10.6c1.2,0,2.2,0.9,2.2,2.1c0,0.2,0,0.4-0.1,0.6l-0.6,3.6c-0.3,1.5-1.6,2.6-3.1,2.7
	H378c-1.2,0.1-2.2-0.9-2.2-2.1c0-0.2,0-0.4,0.1-0.6l0.1-0.6h1.8l-0.1,0.6c-0.1,0.4,0.2,0.8,0.6,0.9c0.1,0,0.1,0,0.2,0h10.6
	c0.5,0,0.9-0.4,1-0.9l0.6-3.6c0.1-0.4-0.2-0.7-0.5-0.8c-0.1,0-0.1,0-0.2,0h-10.6c-1.2,0.1-2.2-0.9-2.3-2.1c0-0.2,0-0.4,0.1-0.6
	l0.6-3.6c0.3-1.5,1.6-2.6,3.1-2.7h10.6c1.2-0.1,2.2,0.8,2.3,2C393.7,44.4,393.6,44.6,393.6,44.9L393.6,44.9z"/>
<path class="st0" d="M89.9,0l-1.2,7h12.6l-4.4,25.2h7L108.2,7h12.6l1.2-7H89.9z M127.7,25.4l-1.2,6.8h-6.8l1.2-6.8H127.7z
	 M180.9,6.6c0.7-2.9-1.2-5.8-4.1-6.5C176.4,0,175.9,0,175.5,0h-18.9c-3.8,0.1-7,2.9-7.8,6.6l-1.1,6.4c-0.7,2.9,1.1,5.8,4,6.5
	c0.5,0.1,0.9,0.2,1.4,0.1h18.5l-1,5.6h-18.2l0.5-2.6H146l-0.5,3c-0.7,2.9,1.1,5.8,4,6.5c0.5,0.1,1,0.2,1.4,0.1h18.9
	c3.8-0.1,7-2.9,7.8-6.6l1.1-6.3c0.7-2.9-1.1-5.8-4-6.5c-0.5-0.1-0.9-0.2-1.4-0.1h-18.6l1-5.7h18.2l-0.5,2.6h7L180.9,6.6L180.9,6.6z
	 M193.4,0c-3.8,0.1-7,2.9-7.8,6.6l-3.4,19c-0.7,2.9,1.1,5.8,4,6.5c0.5,0.1,0.9,0.2,1.4,0.1h18.9c3.8-0.1,7-2.9,7.8-6.6l3.4-19
	c0.7-2.9-1.2-5.8-4.1-6.5C213.2,0,212.7,0,212.3,0H193.4z M192.4,7h18.2l-3.2,18.2h-18.2L192.4,7z M254.8,6.7c0.7-2.9-1.1-5.8-4-6.5
	c-0.5-0.1-1-0.2-1.5-0.1h-18.9c-3.8,0.1-7,2.9-7.8,6.6l-3.3,19c-0.7,2.9,1.1,5.8,4,6.5c0.5,0.1,1,0.2,1.4,0.1h18.9
	c3.8-0.1,7.1-2.9,7.8-6.6l2.1-12.1h-14l-1.2,7h7l-0.9,4.8h-18.2L229.5,7h18.2l-0.5,2.7h7L254.8,6.7L254.8,6.7z M267.5,0h18.9
	c3-0.1,5.5,2.2,5.6,5.2c0,0.5,0,0.9-0.1,1.4l-4.5,25.6h-7l1.8-10.4H264l-1.8,10.4h-6.9l4.5-25.6C260.5,2.9,263.7,0.1,267.5,0z
	 M265.2,14.9h18.2l1.4-7.9h-18.2L265.2,14.9L265.2,14.9z M304.8,0c-3.8,0.1-7,2.9-7.8,6.6l-4.5,25.6h6.9l1.8-10.4h18.2l-1.8,10.4h7
	l4.5-25.6c0.7-2.9-1.2-5.8-4.1-6.5C324.6,0,324.2,0,323.7,0H304.8z M302.5,14.9l1.4-7.9h18.2l-1.4,7.9L302.5,14.9z M366.4,6.7
	l-1.5,8.3c-0.8,3.7-4,6.5-7.8,6.6h-0.3c1.8,2.7,3.8,5.5,5.5,8.2l-0.4,2.4h-7.1l-7-10.6h-9.2c0.1,0,0.1,0.1,0.1,0.3c0,0-0.1,0-0.1,0
	l-1.8,10.3h-6.9l5.6-32.1h25.5c3-0.1,5.5,2.2,5.6,5.2C366.5,5.8,366.5,6.2,366.4,6.7L366.4,6.7z M341.1,7l-1.4,7.6H358l1.3-7.6
	H341.1z M372.4,0l-5.7,32.2h25.5c3.8-0.1,7.1-2.9,7.8-6.6l3.3-19c0.6-2.9-1.2-5.8-4.1-6.4C398.8,0,398.3,0,397.8,0H372.4z M378,7
	h18.2L393,25.2h-18.2L378,7z"/>
<path class="st1" d="M31.1,42.2L31.1,42.2C55.9,33,80.8,6.5,50.1,1c20.9-1.9,27,4.1,24,12.2l-10,7.2l3.6,2.1
	C59.8,30.6,46.1,38.7,31.1,42.2z"/>
<path class="st1" d="M59,9C39.2-4.5,13.2,15.2,21.4,38C2,13.5,39-12.6,59,9z"/>
<path class="st1" d="M29.3,7.5c-2.4,1.9-2.5-1.6-4.5,0.2C0.2,31.6,13,53.2,36.4,47.1c-31.7,18-57-7.5-12-40.2
	C26.6,5.3,26.8,9.1,29.3,7.5z"/>
<path class="st1" d="M28.3,8.2c6,5.5,18.5,9,26.4,8.1c-10.6,6-23.4-1.3-27.8-6.9C27.5,9,27.9,8.6,28.3,8.2z"/>
<path class="st1" d="M49.6,7.7c0,0-7-0.2-13.5,8.9s-4.4,22-4.4,22S35.3,15.1,49.6,7.7z"/>
<path class="st1" d="M19.2,19.9c6,5.5,18.5,9,26.4,8.2c-10.6,6-23.4-1.3-27.7-7C18.4,20.6,18.8,20.2,19.2,19.9z"/>
<path class="st1" d="M75.2,12.3v0.2l0,0V12.3z M75.7,15c5.1,32.1-29.2,47.1-33,48.8V50.3C53,45,65.6,35.7,71.6,24.7l3.1,1.8L75.7,15
	z"/>
<polygon class="st1" points="205.4,3.4 211.2,3.4 193.1,30 187.2,30 "/>
</svg>
